<?xml version="1.0" encoding="UTF-8"?>
<svg id="Layer_1" xmlns="http://www.w3.org/2000/svg" xmlns:xlink="http://www.w3.org/1999/xlink" version="1.1" viewBox="0 0 903.25 903.25">
  <!-- Generator: Adobe Illustrator 29.3.1, SVG Export Plug-In . SVG Version: 2.1.0 Build 151)  -->
  <defs>
    <radialGradient id="radial-gradient" cx="451.63" cy="451.63" fx="451.63" fy="451.63" r="451.63" gradientUnits="userSpaceOnUse">
      <stop offset="0" stop-color="#fff"/>
      <stop offset=".1" stop-color="#fefcf9"/>
      <stop offset=".24" stop-color="#fef5e8"/>
      <stop offset=".4" stop-color="#fdeacc"/>
      <stop offset=".57" stop-color="#fddaa5"/>
      <stop offset=".76" stop-color="#fcc673"/>
      <stop offset=".94" stop-color="#fbb03b"/>
      <stop offset=".97" stop-color="#f8a12c"/>
      <stop offset="1" stop-color="#f7941f"/>
    </radialGradient>
  </defs>
  <circle cx="451.63" cy="451.63" r="451.63" fill="url(#radial-gradient)"/>
  <path d="M411.42,112.19c133.25-9.15,299.78,30.87,368.4,176.57,47.95,101.83,31.79,238.85-34.33,325.15-103.7,135.35-281.59,163.51-427.69,118.53-32.37,19.59-75.69,52.45-112.05,58.95-48.08,8.59-22.63-47.39-16.39-73.4,2.01-8.38,12.04-50.35,10.91-55.02-14.1-16.91-31.55-30.38-45.38-48.14-72.86-93.51-78.19-248.12-17.1-350.91,57.58-96.87,174.85-144.96,273.64-151.75ZM207.24,757.63c38.16-12.49,71.07-38.59,105.56-59.96,129.89,40.44,275.41,28.89,381.89-72.91,105.05-100.43,115.53-284.5,10.37-390.3-138.11-138.94-480.97-127.63-561.51,87.05-39,103.95-17.39,226.54,58.19,299.6,7.21,6.97,26.96,19.42,28.67,29.1,1.23,6.97-3.66,27.75-5.23,36.13-4.51,24.12-10.65,48.14-17.94,71.28Z" fill="#4d4d4d"/>
  <g>
    <path d="M313.05,460.62c0,39.35-27.87,57.34-56.75,57.34-31.33,0-55.6-20.71-55.6-55.48s22.92-57.04,57.53-57.04,54.82,22.67,54.82,55.18ZM235.2,461.72c0,18.38,7.77,32.32,22.03,32.32,13.05,0,21.31-13.07,21.31-32.5,0-15.88-6.12-32.2-21.28-32.2-15.96,0-22.06,16.41-22.06,32.37Z" fill="#f7931e"/>
    <path d="M334.99,369.29c10.77-1.82,26.72-3.19,44.56-3.19,21.99,0,37.4,3.36,47.99,11.75,8.85,7.03,13.72,17.45,13.72,31.08,0,18.78-13.43,31.87-26.18,36.44v.7c10.29,4.15,16.08,13.99,19.81,27.61,4.58,16.78,9.06,36.11,11.97,41.85h-34.32c-2.28-4.29-5.98-16.21-10.2-34.56-4.13-18.53-10.35-23.49-24.15-23.66h-9.97v58.22h-33.22v-146.25ZM368.21,433.05h13.13c16.63,0,26.58-8.48,26.58-21.37,0-13.58-9.3-20.52-24.62-20.6-8.03,0-12.73.52-15.09,1.12v40.84Z" fill="#f7931e"/>
    <path d="M553.53,452.81h-54.56v35.26h61v27.46h-94.52v-148.28h91.35v27.46h-57.82v30.89h54.56v27.2Z" fill="#f7931e"/>
    <path d="M619.45,515.53l-47.57-148.28h36.72l17.94,62.78c5.19,17.63,9.69,34.42,13.39,52.91h.46c3.75-17.8,8.54-35.42,13.58-52.38l18.82-63.31h35.66l-49.86,148.28h-39.16Z" fill="#f7931e"/>
  </g>
</svg>